<?xml version="1.0" standalone="no"?>
<!DOCTYPE svg PUBLIC "-//W3C//DTD SVG 20010904//EN"
 "http://www.w3.org/TR/2001/REC-SVG-20010904/DTD/svg10.dtd">
<svg version="1.0" xmlns="http://www.w3.org/2000/svg"
 width="260.000000pt" height="260.000000pt" viewBox="0 0 260.000000 260.000000"
 preserveAspectRatio="xMidYMid meet">
<metadata>
Created by potrace 1.14, written by Peter Selinger 2001-2017
</metadata>
<g transform="translate(0.000000,260.000000) scale(0.100000,-0.100000)"
fill="#000000" stroke="none">
<path d="M555 2323 c-110 -151 -208 -288 -218 -303 -16 -25 -17 -55 -15 -321
l3 -293 165 228 c91 125 172 236 180 247 8 10 23 30 33 44 l18 25 774 0 775 0
0 300 0 301 -25 24 -24 25 -733 0 -733 -1 -200 -276z"/>
<path d="M750 1860 c-8 -9 -23 -27 -33 -40 -9 -14 -45 -63 -79 -110 -35 -47
-120 -164 -190 -260 l-127 -175 -1 -299 0 -299 70 94 c38 52 75 102 82 111 7
10 66 91 131 180 l118 163 775 0 774 0 -2 324 -3 325 -750 1 c-663 0 -752 -2
-765 -15z"/>
<path d="M700 1072 c-29 -42 -84 -117 -120 -167 -36 -49 -110 -149 -163 -222
l-97 -132 2 -273 c3 -238 5 -273 19 -276 10 -2 76 81 198 248 l182 250 752 -1
752 0 23 26 c22 26 22 29 22 326 l0 299 -757 -1 -758 0 -55 -77z"/>
</g>
</svg>
