<svg width="7" height="23" viewBox="0 0 7 23" fill="none" xmlns="http://www.w3.org/2000/svg">
<mask id="mask0_1206_17764" style="mask-type:alpha" maskUnits="userSpaceOnUse" x="0" y="0" width="7" height="7">
<path fill-rule="evenodd" clip-rule="evenodd" d="M0 0H6.2379V6.2365H0V0Z" fill="white"/>
</mask>
<g mask="url(#mask0_1206_17764)">
<path fill-rule="evenodd" clip-rule="evenodd" d="M3.119 0.999512C4.288 0.999512 5.238 1.94951 5.238 3.11751C5.238 4.28651 4.288 5.23651 3.119 5.23651C1.951 5.23651 1 4.28651 1 3.11751C1 1.94951 1.951 0.999512 3.119 0.999512ZM3.119 6.23651C4.839 6.23651 6.238 4.83751 6.238 3.11751C6.238 1.39751 4.839 -0.000488281 3.119 -0.000488281C1.399 -0.000488281 0 1.39751 0 3.11751C0 4.83751 1.399 6.23651 3.119 6.23651Z" fill="#888888"/>
</g>
<mask id="mask1_1206_17764" style="mask-type:alpha" maskUnits="userSpaceOnUse" x="0" y="8" width="7" height="7">
<path fill-rule="evenodd" clip-rule="evenodd" d="M0 8.03589H6.2379V14.2739H0V8.03589Z" fill="white"/>
</mask>
<g mask="url(#mask1_1206_17764)">
<path fill-rule="evenodd" clip-rule="evenodd" d="M3.119 13.2739C1.951 13.2739 1 12.3239 1 11.1549C1 9.98589 1.951 9.03589 3.119 9.03589C4.288 9.03589 5.238 9.98589 5.238 11.1549C5.238 12.3239 4.288 13.2739 3.119 13.2739ZM3.119 8.03589C1.399 8.03589 0 9.43489 0 11.1549C0 12.8749 1.399 14.2739 3.119 14.2739C4.839 14.2739 6.238 12.8749 6.238 11.1549C6.238 9.43489 4.839 8.03589 3.119 8.03589Z" fill="#888888"/>
</g>
<mask id="mask2_1206_17764" style="mask-type:alpha" maskUnits="userSpaceOnUse" x="0" y="16" width="7" height="7">
<path fill-rule="evenodd" clip-rule="evenodd" d="M0 16.073H6.2379V22.311H0V16.073Z" fill="white"/>
</mask>
<g mask="url(#mask2_1206_17764)">
<path fill-rule="evenodd" clip-rule="evenodd" d="M3.119 21.311C1.951 21.311 1 20.361 1 19.192C1 18.023 1.951 17.073 3.119 17.073C4.288 17.073 5.238 18.023 5.238 19.192C5.238 20.361 4.288 21.311 3.119 21.311ZM3.119 16.073C1.399 16.073 0 17.472 0 19.192C0 20.912 1.399 22.311 3.119 22.311C4.839 22.311 6.238 20.912 6.238 19.192C6.238 17.472 4.839 16.073 3.119 16.073Z" fill="#888888"/>
</g>
</svg>
