<svg width="16" height="17" viewBox="0 0 16 17" fill="none" xmlns="http://www.w3.org/2000/svg">
<path fill-rule="evenodd" clip-rule="evenodd" d="M0.728617 2.21943C0.837856 1.98398 1.07381 1.83334 1.33336 1.83334H14.6667C14.9262 1.83334 15.1622 1.98398 15.2714 2.21943C15.3807 2.45487 15.3433 2.73231 15.1757 2.93049L10 9.05078V14.5C10 14.7311 9.88039 14.9456 9.68385 15.0671C9.48731 15.1886 9.24188 15.1996 9.03522 15.0963L6.36855 13.763C6.1427 13.65 6.00003 13.4192 6.00003 13.1667V9.05078L0.824316 2.93049C0.656718 2.73231 0.619379 2.45487 0.728617 2.21943ZM2.77023 3.16668L7.17574 8.37619C7.27752 8.49654 7.33336 8.64906 7.33336 8.80668V12.7547L8.6667 13.4213V8.80668C8.6667 8.64906 8.72254 8.49654 8.82432 8.37619L13.2298 3.16668H2.77023Z" fill="#525252"/>
</svg>
