<?xml version="1.0" encoding="UTF-8"?>
<svg width="146px" height="36px" viewBox="0 0 146 36" version="1.1" xmlns="http://www.w3.org/2000/svg" xmlns:xlink="http://www.w3.org/1999/xlink">
    <title>portalcx-logo</title>
    <defs>
        <linearGradient x1="0%" y1="50%" x2="100%" y2="50%" id="linearGradient-1">
            <stop stop-color="#FFFFFF" offset="0%"></stop>
            <stop stop-color="#FDFDFD" offset="34%"></stop>
            <stop stop-color="#F6F6F6" stop-opacity="0.99" offset="48%"></stop>
            <stop stop-color="#EAEAEA" stop-opacity="0.98" offset="58%"></stop>
            <stop stop-color="#D8D8D8" stop-opacity="0.97" offset="66%"></stop>
            <stop stop-color="#C2C2C2" stop-opacity="0.95" offset="73%"></stop>
            <stop stop-color="#A6A6A6" stop-opacity="0.93" offset="79%"></stop>
            <stop stop-color="#848484" stop-opacity="0.9" offset="85%"></stop>
            <stop stop-color="#5D5D5D" stop-opacity="0.87" offset="90%"></stop>
            <stop stop-color="#333333" stop-opacity="0.84" offset="95%"></stop>
            <stop stop-color="#040404" stop-opacity="0.8" offset="100%"></stop>
            <stop stop-color="#000000" stop-opacity="0.8" offset="100%"></stop>
        </linearGradient>
    </defs>
    <g id="Signup" stroke="none" stroke-width="1" fill="none" fill-rule="evenodd">
        <g id="Portal---Signup---1" transform="translate(-684.000000, -63.000000)" fill-rule="nonzero">
            <g id="portalcx-logo" transform="translate(684.000000, 63.000000)">
                <path d="M51.2117693,10.9601105 C51.327276,16.3399367 46.8901318,20.7487974 41.5542898,20.7911361 L38.0186607,20.8193618 C37.8465716,20.8200999 37.6819092,20.889692 37.5612854,21.0126646 C37.4406617,21.1356372 37.3740752,21.301797 37.3763312,21.474199 L37.4298587,28.3386992 C37.4321147,28.5111012 37.3655283,28.677261 37.2449045,28.8002336 C37.1242807,28.9232062 36.9596183,28.9927983 36.7875292,28.9935364 L32.6771843,29.0246403 C32.5048463,29.0268434 32.3387112,28.9602191 32.2155249,28.8394478 C32.0923386,28.7186765 32.0222526,28.5537107 32.0207686,28.3810378 L31.8151105,2.33432408 C31.8197181,1.98019287 32.1067691,1.6951095 32.4602572,1.69359976 L41.5458381,1.62008158 C46.762301,1.5932098 51.0499202,5.73620694 51.2117693,10.9601105 Z M45.8054965,11.3270451 C45.8236178,10.1924644 45.3864082,9.09808018 44.5919347,8.28936518 C43.7974612,7.48065019 42.7122243,7.02529696 41.5796449,7.02544218 L37.9031541,7.05366796 C37.7303178,7.0544061 37.5649389,7.12429558 37.4437868,7.2477975 C37.3226347,7.37129943 37.2557514,7.53817709 37.2579521,7.71132772 L37.3143521,14.7677629 C37.3150949,14.9404322 37.3844654,15.105691 37.5071216,15.2269906 C37.6297778,15.3482902 37.7956128,15.4156355 37.9679504,15.414157 L41.5373864,15.3859067 C43.8164252,15.3989656 45.6997412,13.6079812 45.8054965,11.3270451 L45.8054965,11.3270451 Z" id="Shape" fill="#222222"></path>
                <path d="M51.5554715,19.4758165 C51.5543325,15.5150071 53.9350264,11.9436228 57.5871966,10.4273592 C61.2393668,8.91109568 65.4435854,9.74863628 68.2390024,12.5493516 C71.0344194,15.3500669 71.8703755,19.5622541 70.3569804,23.2213465 C68.8435853,26.8804389 65.2789572,29.2656451 61.3256408,29.2645039 C55.9374272,29.2459201 51.5740202,24.8742428 51.5554715,19.4758165 Z M56.964562,19.4758165 C56.9661192,21.8893945 58.9194467,23.8451576 61.3284593,23.8451576 C63.7374718,23.8451576 65.6907974,21.8893903 65.6923532,19.4758123 C65.6939072,17.0622343 63.7431031,15.1039435 61.3340925,15.1008184 C60.1757954,15.0985672 59.0643719,15.5589578 58.2458595,16.3800811 C57.4273472,17.2012043 56.9692629,18.3153279 56.9730137,19.4758165 L56.964562,19.4758165 Z" id="Shape" fill="#222222"></path>
                <path d="M83.3310587,10.3673699 L83.3310587,14.4516347 C83.3158418,14.8180001 83.0124268,15.1057273 82.6464707,15.1008267 L82.4999745,15.1008267 C81.3419077,15.0993218 80.2309224,15.5599545 79.4125736,16.3809137 C78.5942249,17.2018728 78.1358984,18.3155576 78.1388957,19.4758165 L78.1388957,28.3951507 C78.1388973,28.5678173 78.0702433,28.733371 77.9481165,28.8551996 C77.8259897,28.9770282 77.6604529,29.0450934 77.4881146,29.0443489 L73.3777696,29.0443489 C73.2056891,29.0450972 73.040439,28.9769427 72.9187586,28.8550317 C72.7970781,28.7331206 72.7290526,28.5675573 72.7297995,28.3951507 L72.7297995,10.5480147 C72.7290526,10.375608 72.7970781,10.2100448 72.9187586,10.0881337 C73.040439,9.96622262 73.2056891,9.89806812 73.3777696,9.89882264 L77.4881146,9.89882264 C77.6604529,9.89807192 77.8259897,9.96613718 77.9481165,10.0879658 C78.0702433,10.2097944 78.1388973,10.3753481 78.1388957,10.5480147 L78.1388957,11.3072871 C78.1344471,11.4379383 78.2121567,11.5573858 78.3332607,11.6060456 C78.4543647,11.6547054 78.5929174,11.6221525 78.6798047,11.5246253 C79.7329521,10.4993945 81.1095997,9.87363904 82.5732226,9.75487136 C82.7569185,9.72303653 82.9454001,9.77201294 83.0904977,9.8892838 C83.2355954,10.0065547 83.3232495,10.1807569 83.3310587,10.3673699 Z" id="Path" fill="#222222"></path>
                <path d="M98.7272508,10.5480147 L98.7272508,14.0903452 C98.7279978,14.2627518 98.6599722,14.4283151 98.5382918,14.5502262 C98.4166113,14.6721372 98.2513612,14.7402917 98.0792807,14.7395372 L95.3014876,14.7395372 C95.1294072,14.7387827 94.9641571,14.8069372 94.8424766,14.9288483 C94.7207962,15.0507593 94.6527706,15.2163226 94.6535237,15.3887292 L94.6535237,28.3951507 C94.6535254,28.5678173 94.5848713,28.733371 94.4627445,28.8551996 C94.3406177,28.9770282 94.1750809,29.0450934 94.0027426,29.0443489 L89.8923976,29.0443489 C89.7203171,29.0450972 89.555067,28.9769427 89.4333866,28.8550317 C89.3117062,28.7331206 89.2436806,28.5675573 89.2444337,28.3951507 L89.2444337,15.3887292 C89.2451868,15.2163226 89.1771612,15.0507593 89.0554808,14.9288483 C88.9338003,14.8069372 88.7685503,14.7387827 88.5964698,14.7395372 L85.8553007,14.7395372 C85.6829624,14.7402879 85.5174256,14.6722227 85.3952988,14.5503941 C85.273172,14.4285655 85.2045196,14.2630118 85.2045196,14.0903452 L85.2045196,10.5480147 C85.2045196,10.3753481 85.273172,10.2097944 85.3952988,10.0879658 C85.5174256,9.96613718 85.6829624,9.89807192 85.8553007,9.89882264 L88.5964698,9.89882264 C88.7685503,9.89957717 88.9338003,9.83142267 89.0554808,9.7095116 C89.1771612,9.58760053 89.2451868,9.42203724 89.2444337,9.2496306 L89.2444337,0.649247343 C89.2436806,0.476840707 89.3117062,0.311277415 89.4333866,0.189366346 C89.555067,0.0674552766 89.7203171,-0.00069922394 89.8923976,0 L94.0027426,0 C94.176053,-0.00220974657 94.3430447,0.0651858367 94.4663956,0.187179326 C94.5897466,0.309172816 94.6591729,0.475593689 94.6591582,0.649247343 L94.6591582,9.2496306 C94.6584051,9.42203724 94.7264307,9.58760053 94.8481111,9.7095116 C94.9697915,9.83142267 95.1350416,9.89957717 95.3071221,9.89882264 L98.0849152,9.89882264 C98.2560193,9.8995696 98.419819,9.96838646 98.5402795,10.0901339 C98.66074,10.2118814 98.7279935,10.3765863 98.7272508,10.5480147 Z" id="Path" fill="#222222"></path>
                <path d="M119.028236,10.3673699 L119.028236,28.3584572 C119.036674,28.536469 118.972334,28.7102377 118.85006,28.8396675 C118.727786,28.9690973 118.558142,29.0430071 118.380272,29.0443427 L114.306551,29.0443427 C114.124499,29.0450933 113.949647,28.9731621 113.820652,28.8444522 C113.691657,28.7157422 113.619144,28.5408554 113.619146,28.3584572 L113.619146,27.6020073 C113.621803,27.4725885 113.548107,27.3537509 113.43112,27.2988095 C113.314134,27.2438682 113.175822,27.2631387 113.078237,27.3479757 C111.767695,28.6205414 110.000655,29.3103828 108.176249,29.2616809 C102.803783,29.2616809 99.4850807,24.8923362 99.4850807,19.472994 C99.4850807,14.0536517 102.803783,9.68148444 108.181883,9.68148444 C110.849804,9.68148444 112.362659,10.7653529 113.083871,11.5246253 C113.170758,11.6221525 113.309311,11.6547054 113.430415,11.6060456 C113.551519,11.5573858 113.629229,11.4379383 113.62478,11.3072871 L113.62478,10.3673699 C113.626332,9.98810972 113.933639,9.68148444 114.312185,9.68148444 L118.380272,9.68148444 C118.557886,9.68361128 118.727057,9.75776461 118.84916,9.88701338 C118.971263,10.0162621 119.035872,10.1895712 119.028236,10.3673699 Z M113.619149,19.4758165 C113.620285,17.7069267 112.557474,16.1116314 110.926542,15.4341791 C109.29561,14.7567269 107.417938,15.1306115 106.16951,16.3814057 C104.921082,17.6322 104.547905,19.5134313 105.224075,21.1474542 C105.900246,22.7814771 107.492523,23.8463028 109.258067,23.8451649 C110.415155,23.8466619 111.525283,23.3868035 112.343469,22.5670669 C113.161655,21.7473303 113.620644,20.6350982 113.619149,19.4758165 Z" id="Shape" fill="#222222"></path>
                <path d="M122.67092,4.9102934e-05 L126.77563,4.9102934e-05 C126.947969,-0.000695422597 127.113505,0.0673698409 127.235632,0.189198429 C127.357759,0.311027016 127.426411,0.476580749 127.426411,0.649247343 L127.426411,28.3951507 C127.426411,28.5678173 127.357759,28.733371 127.235632,28.8551996 C127.113505,28.9770282 126.947969,29.0450934 126.77563,29.0443489 L122.67092,29.0443489 C122.498839,29.0450972 122.333589,28.9769427 122.211909,28.8550317 C122.090228,28.7331206 122.022203,28.5675573 122.02295,28.3951507 L122.02295,0.649247343 C122.022203,0.476840707 122.090228,0.311277415 122.211909,0.189366346 C122.333589,0.0674552766 122.498839,-0.00069922394 122.67092,4.9102934e-05 L122.67092,4.9102934e-05 Z" id="Path" fill="#222222"></path>
                <path d="M138.681263,7.35568338 C138.726781,7.38505819 138.758469,7.43166603 138.769088,7.48485894 C138.779706,7.53805186 138.768348,7.59328533 138.737608,7.63794079 C137.610802,9.15310255 135.643033,9.77638052 133.851682,9.1855252 C132.060332,8.59466987 130.846948,6.92212707 130.83884,5.03264111 C130.830812,3.14315516 132.029868,1.46027219 133.816107,0.854082663 C135.602346,0.247893135 137.575367,0.854280158 138.71507,2.35972724 C138.779192,2.45102283 138.757808,2.57704709 138.667177,2.64198465 L137.588176,3.38996679 C137.495499,3.44395985 137.377688,3.42507426 137.306452,3.3448056 C136.601855,2.46468149 135.418764,2.1272675 134.357162,2.50367672 C133.29556,2.88008595 132.587668,3.88798017 132.59248,5.01622496 C132.597293,6.14446976 133.313757,7.14626545 134.378531,7.51357037 C135.443306,7.88087529 136.623475,7.53334276 137.320539,6.64721729 C137.387776,6.56037756 137.51016,6.53953289 137.602262,6.59923353 L138.681263,7.35568338 Z" id="Path" fill="#222222"></path>
                <path d="M143.546627,5.0552855 L145.969448,9.03229239 C146.008274,9.09489506 146.010226,9.17365203 145.97455,9.23810842 C145.938874,9.30256481 145.871161,9.34261643 145.797597,9.34284538 L144.259387,9.34284538 C144.183715,9.34471961 144.112787,9.30595811 144.073449,9.24116288 L142.594401,6.81374916 C142.575346,6.78031151 142.539864,6.75967271 142.501433,6.75967271 C142.463002,6.75967271 142.427519,6.78031151 142.408464,6.81374916 L140.918147,9.24116288 C140.883435,9.30505921 140.816074,9.34424662 140.743478,9.34284538 L139.205268,9.34284538 C139.130891,9.34454302 139.061679,9.30480537 139.025598,9.23961801 C138.989517,9.17443065 138.992529,9.09456608 139.033417,9.03229239 L141.456239,5.06375322 C141.478791,5.02848682 141.478791,4.98329408 141.456239,4.94802768 L139.055955,1.01900455 C139.014739,0.956303982 139.01196,0.875781827 139.048754,0.810378365 C139.085548,0.744974903 139.155743,0.705661801 139.230624,0.708521399 L140.768834,0.708521399 C140.837709,0.707440575 140.902425,0.741454179 140.940685,0.79884377 L142.408464,3.2036769 C142.428581,3.23567741 142.463685,3.25509118 142.501433,3.25509118 C142.53918,3.25509118 142.574284,3.23567741 142.594401,3.2036769 L144.050912,0.79884377 C144.094362,0.741539761 144.162205,0.708076499 144.234032,0.708521399 L145.76379,0.708521399 C145.837867,0.708172838 145.906565,0.747234405 145.944251,0.811131041 C145.981937,0.875027677 145.982949,0.954161225 145.94691,1.01900455 L143.546627,4.93955996 C143.524074,4.97482636 143.524074,5.0200191 143.546627,5.0552855 L143.546627,5.0552855 Z" id="Path" fill="#222222"></path>
                <path d="M5.0372976,1.83741705 L5.0372976,1.83741705 L0.211375079,9.35688842 C0.0708224679,9.56819863 -0.00281797259,9.81708322 0,10.0709997 L0,18.8492051 L5.1274491,11.149223 L24.1325123,11.0080943 L24.1325123,2.77182306 C24.0980214,2.2399983 23.6529932,1.82890205 23.1211252,1.83741705 L5.0372976,1.83741705 Z" id="Path" fill="#4CE89A"></path>
                <polygon id="Path" fill="#318CC8" points="5.10491122 10.7992238 5.10491122 10.7992238 8.2499344e-05 18.4596899 8.2499344e-05 27.6274105 5.12181463 19.9669444 24.1353296 19.9669444 24.1353296 10.7992238"></polygon>
                <path d="M5.10491122,19.8992026 L5.10491122,19.9217832 L8.14632277e-05,27.5596687 L8.14632277e-05,35.6802144 C-0.000274018713,35.8208948 0.0914072877,35.9451953 0.225738391,35.9861562 C0.360069495,36.0271171 0.505322219,35.9750636 0.583250019,35.8580366 L5.1189974,29.0725684 L23.1859216,29.0725684 C23.707611,29.0725708 24.1309597,28.649682 24.1325123,28.1270061 L24.1325123,19.8992026 L5.10491122,19.8992026 Z" id="Path" fill="#13386D"></path>
                <rect id="Rectangle" fill="url(#linearGradient-1)" opacity="0.42" style="mix-blend-mode: multiply;" x="5.23732124" y="1.83755104" width="18.9402668" height="27.1926788" rx="1.06128786"></rect>
            </g>
        </g>
    </g>
</svg>