<svg width="210" height="49" viewBox="0 0 210 49" fill="none" xmlns="http://www.w3.org/2000/svg">
<g clip-path="url(#clip0_1391_17807)">
<path d="M73.6579 14.929C73.824 22.2569 67.4417 28.2623 59.7668 28.32L54.6852 28.3583C54.5624 28.3588 54.441 28.3824 54.328 28.4274C54.2148 28.4726 54.112 28.5385 54.0259 28.6214C53.9397 28.7044 53.8715 28.8026 53.8255 28.9105C53.7793 29.0183 53.7562 29.1339 53.7571 29.2503L53.8343 38.6006C53.8358 38.7167 53.8131 38.8321 53.7675 38.9401C53.7218 39.0479 53.6541 39.1463 53.5681 39.2292C53.4822 39.3122 53.3799 39.378 53.2671 39.4232C53.1541 39.4684 53.0328 39.492 52.9103 39.4925L46.998 39.5348C46.8754 39.5363 46.7538 39.5147 46.6401 39.4715C46.5265 39.4281 46.4228 39.3639 46.3354 39.2824C46.2481 39.2009 46.1784 39.1038 46.1309 38.9966C46.0832 38.8895 46.0585 38.7744 46.058 38.6583L45.7581 3.1798C45.7613 2.94794 45.8604 2.72655 46.0339 2.56331C46.2075 2.40007 46.4417 2.30806 46.6861 2.30706L59.7546 2.2071C63.3627 2.18942 66.8356 3.50948 69.4327 5.88597C72.0298 8.26243 73.5458 11.5073 73.6579 14.929ZM65.8816 15.4288C65.8944 14.6638 65.7468 13.9039 65.4471 13.1936C65.1474 12.4832 64.7018 11.8365 64.1359 11.2912C63.5703 10.7459 62.8958 10.3128 62.152 10.0172C61.408 9.72167 60.6096 9.56949 59.8032 9.5696L54.5151 9.60804C54.3919 9.60855 54.2701 9.63216 54.1567 9.67755C54.0433 9.72294 53.9406 9.78918 53.8543 9.87246C53.768 9.95576 53.6999 10.0544 53.6541 10.1628C53.6082 10.2712 53.5853 10.3871 53.587 10.5039L53.668 20.1154C53.6686 20.2319 53.6934 20.3472 53.7409 20.4544C53.7885 20.5618 53.8579 20.6591 53.9454 20.741C54.0326 20.8228 54.1363 20.8874 54.2499 20.9312C54.3637 20.9749 54.4855 20.9969 54.6082 20.996L59.7465 20.9575C61.3236 20.966 62.8431 20.3952 63.9868 19.3646C65.1304 18.3342 65.8094 16.9237 65.8816 15.4288Z" fill="#222222"/>
<path d="M74.1563 26.5284C74.1554 23.8902 74.9794 21.3112 76.5236 19.1173C78.0679 16.9235 80.2633 15.2134 82.8322 14.2035C85.4009 13.1936 88.2277 12.9291 90.955 13.4436C93.6821 13.9581 96.1873 15.2284 98.1534 17.0939C100.12 18.9594 101.459 21.3361 102.001 23.9236C102.543 26.5112 102.264 29.1931 101.2 31.6302C100.135 34.0675 98.3331 36.1504 96.0208 37.6157C93.7085 39.0808 90.9901 39.8624 88.2095 39.8617C84.4862 39.8495 80.9193 38.4409 78.2865 35.9431C75.6538 33.4452 74.1691 30.061 74.1563 26.5284ZM81.9367 26.5284C81.9374 27.7061 82.3061 28.8568 82.9962 29.8356C83.6861 30.8145 84.6665 31.5771 85.8132 32.0273C86.96 32.4776 88.2218 32.5954 89.439 32.3654C90.6562 32.1355 91.7744 31.5683 92.652 30.7357C93.5296 29.9031 94.1273 28.8423 94.3696 27.6874C94.6121 26.5326 94.488 25.3354 94.0134 24.2474C93.5388 23.1594 92.7348 22.2291 91.7034 21.5745C90.6717 20.9199 89.4587 20.57 88.2176 20.5693C87.3926 20.5677 86.5755 20.7208 85.8132 21.0199C85.0509 21.319 84.3585 21.758 83.7755 22.3117C83.1926 22.8656 82.7308 23.5231 82.4166 24.2468C82.1024 24.9704 81.942 25.7459 81.9447 26.5284H81.9367Z" fill="#222222"/>
<path d="M119.858 14.1216V19.6847C119.847 19.9248 119.738 20.1515 119.555 20.3165C119.37 20.4816 119.126 20.5722 118.873 20.5691H118.666C117.841 20.5675 117.024 20.7206 116.261 21.0197C115.499 21.3186 114.806 21.7576 114.223 22.3113C113.64 22.865 113.177 23.5225 112.863 24.2463C112.548 24.97 112.387 25.7455 112.389 26.5282V38.6773C112.39 38.7937 112.366 38.9089 112.319 39.0163C112.273 39.1238 112.204 39.2216 112.117 39.3038C112.031 39.386 111.928 39.4512 111.814 39.4953C111.701 39.5395 111.58 39.562 111.457 39.5617H105.541C105.418 39.562 105.297 39.5395 105.184 39.4953C105.07 39.4512 104.967 39.386 104.881 39.3038C104.794 39.2216 104.725 39.1238 104.679 39.0163C104.632 38.9089 104.608 38.7937 104.609 38.6773V14.3676C104.608 14.2514 104.632 14.1362 104.679 14.0287C104.725 13.9211 104.794 13.8235 104.881 13.7412C104.967 13.659 105.07 13.5939 105.184 13.5497C105.297 13.5054 105.418 13.4829 105.541 13.4834H111.457C111.58 13.4829 111.701 13.5054 111.814 13.5497C111.928 13.5939 112.031 13.659 112.117 13.7412C112.204 13.8235 112.273 13.9211 112.319 14.0287C112.366 14.1362 112.39 14.2514 112.389 14.3676V15.4019C112.386 15.4887 112.411 15.5744 112.461 15.6472C112.511 15.72 112.584 15.7765 112.669 15.8088C112.754 15.8412 112.847 15.8479 112.936 15.828C113.026 15.8082 113.106 15.7627 113.167 15.6979C114.682 14.3014 116.662 13.4491 118.768 13.2873C118.898 13.2659 119.032 13.2711 119.16 13.3027C119.289 13.3343 119.408 13.3914 119.512 13.4704C119.615 13.5493 119.699 13.6483 119.759 13.7606C119.818 13.8729 119.852 13.996 119.858 14.1216Z" fill="#222222"/>
<path d="M142.003 14.3676V19.1926C142.004 19.3089 141.98 19.4241 141.933 19.5316C141.887 19.6392 141.818 19.7368 141.731 19.819C141.645 19.9013 141.542 19.9664 141.428 20.0105C141.315 20.0548 141.194 20.0773 141.071 20.0769H137.076C136.953 20.0764 136.832 20.0989 136.718 20.1432C136.605 20.1875 136.502 20.2526 136.415 20.3348C136.329 20.417 136.26 20.5147 136.213 20.6221C136.167 20.7297 136.143 20.845 136.144 20.9611V38.6773C136.144 38.7935 136.12 38.9087 136.074 39.0163C136.027 39.1238 135.958 39.2214 135.872 39.3036C135.785 39.3858 135.682 39.451 135.569 39.4953C135.456 39.5396 135.334 39.5621 135.212 39.5615H129.299C129.177 39.5621 129.055 39.5396 128.941 39.4953C128.828 39.4512 128.725 39.386 128.638 39.304C128.551 39.2218 128.482 39.1241 128.434 39.0165C128.388 38.9091 128.363 38.7937 128.363 38.6773V20.9611C128.364 20.845 128.34 20.7297 128.293 20.6221C128.247 20.5147 128.178 20.417 128.091 20.3348C128.005 20.2526 127.902 20.1875 127.788 20.1432C127.675 20.0989 127.554 20.0764 127.431 20.0769H123.488C123.366 20.0773 123.244 20.0548 123.131 20.0105C123.018 19.9664 122.915 19.9013 122.828 19.819C122.741 19.7368 122.673 19.6392 122.626 19.5316C122.579 19.4241 122.556 19.3089 122.556 19.1926V14.3676C122.556 14.2513 122.579 14.1361 122.626 14.0286C122.673 13.9211 122.741 13.8234 122.828 13.7412C122.915 13.659 123.018 13.5938 123.131 13.5496C123.244 13.5053 123.366 13.4828 123.488 13.4833H127.431C127.554 13.4838 127.675 13.4613 127.788 13.417C127.902 13.3728 128.005 13.3077 128.091 13.2254C128.178 13.1432 128.247 13.0455 128.293 12.938C128.34 12.8305 128.364 12.7153 128.363 12.599V0.884403C128.363 0.767955 128.388 0.652653 128.434 0.545118C128.482 0.437583 128.551 0.339929 128.638 0.257767C128.725 0.175605 128.828 0.110551 128.941 0.0663387C129.055 0.0221268 129.177 -0.000371809 129.299 0.000134488H135.212C135.335 -0.00191472 135.458 0.0194724 135.573 0.0630407C135.687 0.106609 135.792 0.171481 135.88 0.253849C135.968 0.336218 136.037 0.434423 136.085 0.542704C136.132 0.650983 136.156 0.767155 136.156 0.884403V12.599C136.155 12.7153 136.179 12.8305 136.226 12.938C136.272 13.0455 136.341 13.1432 136.427 13.2254C136.514 13.3077 136.617 13.3728 136.73 13.417C136.844 13.4613 136.965 13.4838 137.088 13.4833H141.083C141.329 13.4853 141.563 13.5795 141.736 13.7452C141.908 13.911 142.004 14.1347 142.003 14.3676Z" fill="#222222"/>
<path d="M171.204 14.1218V38.6276C171.21 38.7476 171.19 38.8675 171.146 38.98C171.102 39.0927 171.035 39.1958 170.947 39.2829C170.86 39.3702 170.756 39.4399 170.64 39.4878C170.523 39.5357 170.398 39.561 170.272 39.5619H164.412C164.151 39.5619 163.9 39.4633 163.716 39.2882C163.531 39.1129 163.427 38.8753 163.427 38.6276V37.5972C163.429 37.511 163.405 37.426 163.357 37.3527C163.309 37.2794 163.239 37.2208 163.157 37.1843C163.075 37.1476 162.983 37.1344 162.893 37.1464C162.803 37.1581 162.718 37.1946 162.649 37.2512C161.717 38.1077 160.614 38.7795 159.405 39.227C158.195 39.6746 156.904 39.8891 155.607 39.8579C147.879 39.8579 143.105 33.9064 143.105 26.5246C143.105 19.1428 147.867 13.1875 155.607 13.1875C159.444 13.1875 161.624 14.6639 162.662 15.6981C162.723 15.7629 162.803 15.8084 162.892 15.8282C162.982 15.848 163.075 15.8414 163.16 15.809C163.245 15.7766 163.318 15.7202 163.368 15.6474C163.418 15.5746 163.443 15.4889 163.44 15.4021V14.1218C163.44 13.874 163.543 13.6364 163.728 13.4612C163.913 13.286 164.163 13.1875 164.424 13.1875H170.284C170.409 13.1905 170.533 13.2171 170.647 13.2659C170.762 13.3147 170.865 13.3846 170.95 13.4715C171.036 13.5585 171.102 13.6608 171.146 13.7725C171.19 13.8841 171.209 14.0029 171.204 14.1218ZM163.427 26.5284C163.428 25.3504 163.061 24.1987 162.372 23.2187C161.682 22.2389 160.702 21.4751 159.555 21.0237C158.409 20.5724 157.146 20.4539 155.928 20.6833C154.711 20.9127 153.592 21.4794 152.714 22.3122C151.835 23.1449 151.237 24.206 150.994 25.3613C150.752 26.5166 150.876 27.7144 151.351 28.8027C151.826 29.8911 152.63 30.8215 153.663 31.476C154.695 32.1306 155.909 32.4799 157.15 32.4799C157.975 32.4816 158.792 32.3286 159.554 32.03C160.316 31.7317 161.008 31.2934 161.591 30.7404C162.174 30.1874 162.637 29.5308 162.952 28.808C163.267 28.0853 163.429 27.3106 163.427 26.5284Z" fill="#222222"/>
<path d="M176.443 7.56732e-05H182.351C182.474 -0.000433158 182.595 0.0220917 182.709 0.0663502C182.822 0.110609 182.925 0.175724 183.012 0.257938C183.098 0.340151 183.167 0.437833 183.214 0.545348C183.26 0.652862 183.284 0.768079 183.283 0.884345V38.6772C183.284 38.7935 183.26 38.9087 183.214 39.0162C183.167 39.1238 183.098 39.2214 183.012 39.3036C182.925 39.3858 182.822 39.451 182.709 39.4953C182.595 39.5394 182.474 39.5621 182.351 39.5615H176.435C176.313 39.5621 176.191 39.5394 176.078 39.4953C175.965 39.451 175.861 39.3858 175.775 39.3036C175.688 39.2214 175.62 39.1238 175.573 39.0162C175.526 38.9087 175.503 38.7935 175.503 38.6772V0.884345C175.503 0.767425 175.527 0.651573 175.574 0.54355C175.621 0.435528 175.69 0.337498 175.778 0.255181C175.865 0.172865 175.969 0.107911 176.083 0.0641112C176.198 0.0203116 176.32 -0.00145719 176.443 7.56732e-05Z" fill="#222222"/>
<path d="M199.471 10.0193C199.506 10.0387 199.532 10.0643 199.555 10.0945C199.578 10.1247 199.594 10.1588 199.601 10.1949C199.609 10.2309 199.607 10.268 199.599 10.3039C199.592 10.3398 199.576 10.3738 199.553 10.4037C198.763 11.4101 197.66 12.1551 196.398 12.5334C195.136 12.9117 193.782 12.9041 192.526 12.5117C191.27 12.1192 190.174 11.3618 189.397 10.3467C188.619 9.33151 188.198 8.10999 188.192 6.85501C188.186 5.60003 188.597 4.37514 189.365 3.35369C190.134 2.33226 191.222 1.566 192.475 1.16337C193.727 0.760746 195.082 0.742143 196.346 1.11019C197.61 1.47825 198.721 2.21431 199.521 3.21422C199.565 3.27382 199.582 3.34716 199.571 3.41886C199.557 3.49055 199.517 3.55501 199.456 3.59869L197.904 4.61751C197.839 4.65393 197.763 4.66771 197.69 4.65647C197.616 4.64522 197.549 4.60967 197.499 4.55601C197.007 3.96909 196.335 3.54187 195.575 3.33351C194.817 3.12513 194.008 3.14597 193.261 3.39309C192.517 3.6402 191.869 4.10139 191.411 4.71273C190.953 5.32409 190.708 6.05531 190.708 6.80512C190.708 7.55491 190.953 8.28616 191.411 8.8975C191.869 9.50885 192.517 9.97003 193.261 10.2172C194.008 10.4643 194.817 10.4851 195.575 10.2767C196.335 10.0684 197.007 9.64113 197.499 9.05424C197.545 8.99791 197.614 8.96009 197.688 8.94804C197.763 8.93597 197.839 8.95051 197.904 8.98887L199.471 10.0193Z" fill="#222222"/>
<path d="M206.47 6.88585L209.956 12.3029C209.983 12.3448 209.998 12.3929 210 12.4422C210 12.4914 209.989 12.5402 209.964 12.5833C209.937 12.6264 209.901 12.6623 209.857 12.6874C209.811 12.7125 209.759 12.7258 209.708 12.7258H207.495C207.442 12.7273 207.39 12.7152 207.344 12.6908C207.299 12.6665 207.259 12.6308 207.232 12.5875L205.101 9.28106C205.088 9.25957 205.067 9.2418 205.044 9.22948C205.021 9.21714 204.996 9.21066 204.97 9.21066C204.943 9.21066 204.916 9.21714 204.893 9.22948C204.87 9.2418 204.851 9.25957 204.838 9.28106L202.69 12.5875C202.667 12.6301 202.631 12.6657 202.587 12.6902C202.543 12.7146 202.493 12.727 202.442 12.7258H200.229C200.178 12.7278 200.124 12.7158 200.078 12.6913C200.033 12.6669 199.994 12.6308 199.968 12.5871C199.943 12.5434 199.93 12.4938 199.931 12.4436C199.933 12.3935 199.951 12.3448 199.979 12.3029L203.463 6.89737C203.482 6.87469 203.492 6.84701 203.492 6.81855C203.492 6.79012 203.482 6.76244 203.463 6.73974L200.015 1.388C199.987 1.34638 199.97 1.29807 199.968 1.24829C199.966 1.19851 199.979 1.14916 200.004 1.1056C200.029 1.06203 200.067 1.02591 200.113 1.00114C200.159 0.976375 200.21 0.963907 200.262 0.965088H202.474C202.524 0.964362 202.572 0.975244 202.616 0.996735C202.658 1.01823 202.696 1.04964 202.723 1.08812L204.838 4.36376C204.851 4.38523 204.87 4.403 204.893 4.41534C204.916 4.42766 204.943 4.43414 204.97 4.43414C204.996 4.43414 205.021 4.42766 205.044 4.41534C205.067 4.403 205.088 4.38523 205.101 4.36376L207.196 1.08812C207.228 1.04932 207.268 1.018 207.314 0.996648C207.362 0.975295 207.411 0.96449 207.463 0.965088H209.66C209.712 0.964854 209.763 0.977634 209.809 1.00215C209.855 1.02668 209.893 1.06208 209.92 1.10485C209.947 1.14762 209.96 1.19627 209.962 1.24594C209.962 1.29562 209.948 1.34459 209.924 1.388L206.47 6.72821C206.455 6.75173 206.445 6.77908 206.445 6.80703C206.445 6.83496 206.455 6.86231 206.47 6.88585Z" fill="#222222"/>
<path d="M34.7035 3.56415V14.0523H7.25758H7.18059C7.09947 14.0637 7.02164 14.0907 6.95194 14.1317C6.88223 14.1727 6.82216 14.2268 6.77536 14.2907L0 23.4102V13.245C0.000452411 12.8986 0.109027 12.5601 0.312024 12.2723L7.33864 2.30696V2.28004H33.3501C33.5278 2.28004 33.7039 2.31326 33.868 2.37779C34.0322 2.44233 34.1813 2.53691 34.3071 2.65615C34.4327 2.77538 34.5324 2.91695 34.6006 3.07274C34.6685 3.22854 34.7035 3.39552 34.7035 3.56415Z" fill="#44EA9F"/>
<path d="M34.7035 28.0658V38.2695C34.7035 38.4385 34.6683 38.6058 34.6002 38.7619C34.5318 38.9178 34.4318 39.0595 34.3056 39.1789C34.1796 39.2982 34.0299 39.3927 33.8652 39.457C33.7006 39.5212 33.524 39.5541 33.3461 39.5537H7.36296L0.834786 48.8038C0.781345 48.8822 0.702555 48.9419 0.61027 48.9741C0.517982 49.0062 0.41719 49.0089 0.323053 48.982C0.228913 48.9552 0.146521 48.9 0.0882657 48.8249C0.0300107 48.7497 -0.000956386 48.6588 2.25136e-05 48.5655V38.7732L7.69931 28.0658H34.7035Z" fill="#113A6B"/>
<path d="M34.7035 15.2057V26.9126H7.36294C7.26373 26.9128 7.16606 26.936 7.07847 26.9803C6.99088 27.0246 6.91603 27.0885 6.86047 27.1663L0 36.7242V25.4094L7.58583 15.2057H34.7035Z" fill="#2C8FC6"/>
</g>
<defs>
<clipPath id="clip0_1391_17807">
<rect width="210" height="49" fill="white"/>
</clipPath>
</defs>
</svg>
