<svg width="18" height="17" viewBox="0 0 18 17" fill="none" xmlns="http://www.w3.org/2000/svg">
<g id="icon-folder">
<mask id="mask0_1122_1061" style="mask-type:alpha" maskUnits="userSpaceOnUse" x="0" y="0" width="18" height="17">
<path id="Clip 2" fill-rule="evenodd" clip-rule="evenodd" d="M0 0H18V16.4838H0V0Z" fill="white"/>
</mask>
<g mask="url(#mask0_1122_1061)">
<path id="Fill 1" fill-rule="evenodd" clip-rule="evenodd" d="M16.9154 15.7332H1.08466C0.900754 15.7332 0.750629 15.5815 0.750629 15.3954V5.26266H17.2494V15.3954C17.2494 15.5815 17.0993 15.7332 16.9154 15.7332ZM1.08466 0.750629H3.71036C3.87625 0.878236 4.23355 1.46973 4.50002 2.06048C4.56082 2.19484 4.69443 2.28191 4.84231 2.28191H16.9154C17.0993 2.28191 17.2494 2.43354 17.2494 2.62044V4.51203H0.750629V1.08916C0.750629 0.902256 0.900754 0.750629 1.08466 0.750629ZM16.9154 1.53128H5.08251C4.35515 0 3.91303 0 3.7629 0H1.08466C0.486407 0 0 0.488659 0 1.08916V15.3954C0 15.9959 0.486407 16.4838 1.08466 16.4838H16.9154C17.5137 16.4838 18.0001 15.9959 18.0001 15.3954V2.62044C18.0001 2.01994 17.5137 1.53128 16.9154 1.53128Z" fill="#231F20"/>
</g>
</g>
</svg>
