
<svg width="23" height="24" viewBox="0 0 23 24" fill="red" xmlns="http://www.w3.org/2000/svg">
    <g id="Group 9">
        <path id="Fill 1" fill-rule="evenodd" clip-rule="evenodd" d="M18.232 22.046H4.388L3.083 4.038H8.083H14.537H19.537L18.232 22.046ZM9.437 1H13.183L13.848 3.038H8.771L9.437 1ZM22.12 3.038H20.074H14.9L14.021 0.344C13.954 0.139 13.762 0 13.545 0H9.074C8.858 0 8.666 0.139 8.599 0.344L7.72 3.038H2.545H0.5C0.223 3.038 0 3.262 0 3.538C0 3.814 0.223 4.038 0.5 4.038H2.081L3.424 22.582C3.443 22.843 3.661 23.046 3.923 23.046H18.697C18.959 23.046 19.177 22.843 19.195 22.582L20.539 4.038H22.12C22.396 4.038 22.62 3.814 22.62 3.538C22.62 3.262 22.396 3.038 22.12 3.038Z" fill="red"/>
        <path id="Fill 3" fill-rule="evenodd" clip-rule="evenodd" d="M11.3194 6.0909C11.0434 6.0909 10.8194 6.3149 10.8194 6.5909V19.4189C10.8194 19.6949 11.0434 19.9189 11.3194 19.9189C11.5954 19.9189 11.8194 19.6949 11.8194 19.4189V6.5909C11.8194 6.3149 11.5954 6.0909 11.3194 6.0909Z" fill="red"/>
        <path id="Fill 5" fill-rule="evenodd" clip-rule="evenodd" d="M14.9864 19.9176C14.9974 19.9176 15.0084 19.9186 15.0204 19.9186C15.2804 19.9186 15.5014 19.7156 15.5184 19.4516L16.3724 6.6236C16.3904 6.3486 16.1824 6.1106 15.9064 6.0916C15.6394 6.0876 15.3924 6.2826 15.3744 6.5576L14.5204 19.3856C14.5024 19.6606 14.7114 19.8986 14.9864 19.9176Z" fill="red"/>
        <path id="Fill 7" fill-rule="evenodd" clip-rule="evenodd" d="M6.73197 6.0919C6.45697 6.1099 6.24797 6.3489 6.26597 6.6239L7.11997 19.4519C7.13697 19.7159 7.35697 19.9189 7.61797 19.9189C7.62897 19.9189 7.64097 19.9179 7.65197 19.9179C7.92697 19.8989 8.13597 19.6609 8.11797 19.3849L7.26397 6.5579C7.24597 6.2819 7.00197 6.0789 6.73197 6.0919Z" fill="red"/>
    </g>
</svg>
