

    <svg width="24" height="24" viewBox="0 0 24 24" fill="none" xmlns="http://www.w3.org/2000/svg">
    <g id="Group 3">
    <mask id="mask0_1146_9293" style="mask-type:alpha" maskUnits="userSpaceOnUse" x="0" y="0" width="24" height="24">
    <path id="Clip 2" fill-rule="evenodd" clip-rule="evenodd" d="M0 0H23.8529V23.8057H0V0Z" fill="white"/>
    </mask>
    <g mask="url(#mask0_1146_9293)">
    <path id="Fill 1" fill-rule="evenodd" clip-rule="evenodd" d="M22.5342 5.76075L8.06217 20.2327L6.73017 18.9007L18.4762 7.15375C18.6722 6.95875 18.6722 6.64175 18.4762 6.44675C18.2812 6.25175 17.9652 6.25175 17.7692 6.44675L6.02317 18.1938L3.60017 15.7707L18.0722 1.29875C18.4832 0.88775 19.2002 0.88775 19.6112 1.29875L22.5342 4.22175C22.7402 4.42775 22.8532 4.70075 22.8532 4.99075C22.8532 5.28175 22.7402 5.55475 22.5342 5.76075ZM1.34817 22.7878C1.23417 22.8347 1.13417 22.7507 1.09517 22.7138C1.03017 22.6467 0.975169 22.5378 1.02017 22.4287C1.08217 22.2537 1.14617 22.0718 1.21217 21.8857L1.91717 22.5898C1.72217 22.6577 1.53117 22.7237 1.34817 22.7878ZM5.66917 19.2537L5.67017 19.2547L7.16117 20.7457C6.24417 21.0758 4.55817 21.6687 2.96517 22.2247L1.58317 20.8427C2.14617 19.2627 2.74817 17.5807 3.08317 16.6677L5.66917 19.2537ZM23.2412 3.51475L20.3182 0.59175C19.5302 -0.19725 18.1532 -0.19725 17.3652 0.59175L2.53917 15.4167C2.51817 15.4388 2.49817 15.4618 2.46017 15.5367C2.44617 15.5627 2.43217 15.5887 2.42317 15.6167C2.24817 16.0107 1.77517 17.3048 0.0871686 22.0697C-0.0988314 22.5187 0.0181686 23.0487 0.387169 23.4188C0.640169 23.6728 0.962169 23.8057 1.28017 23.8057C1.42317 23.8057 1.56617 23.7787 1.70117 23.7227C6.53417 22.0448 7.82817 21.5808 8.21917 21.4088C8.24717 21.3997 8.27117 21.3867 8.29717 21.3727C8.37117 21.3357 8.39317 21.3158 8.41517 21.2938L23.2412 6.46775C23.6362 6.07375 23.8532 5.54975 23.8532 4.99075C23.8532 4.43275 23.6362 3.90875 23.2412 3.51475Z" fill="#888888"/>
    </g>
    </g>
    </svg>

