<svg width="27" height="28" viewBox="0 0 27 28" fill="none" xmlns="http://www.w3.org/2000/svg">
<path d="M21.7593 12.7963H4.90741M21.7593 12.7963C23.0888 12.7963 24.1667 13.8741 24.1667 15.2037V22.4259C24.1667 23.7555 23.0888 24.8333 21.7593 24.8333H4.90741C3.57783 24.8333 2.5 23.7555 2.5 22.4259V15.2037C2.5 13.8741 3.57783 12.7963 4.90741 12.7963M21.7593 12.7963V10.3889C21.7593 9.05932 20.6814 7.98149 19.3519 7.98149M4.90741 12.7963V10.3889C4.90741 9.05932 5.98524 7.98149 7.31481 7.98149M7.31481 7.98149V5.57408C7.31481 4.2445 8.39265 3.16667 9.72222 3.16667H16.9444C18.274 3.16667 19.3519 4.2445 19.3519 5.57408V7.98149M7.31481 7.98149H19.3519" stroke="#111827" stroke-width="2.67" stroke-linecap="round" stroke-linejoin="round"/>
</svg>
