<svg width="24" height="24" viewBox="0 0 24 24" fill="none" xmlns="http://www.w3.org/2000/svg">
<mask id="mask0_1632_18964" style="mask-type:alpha" maskUnits="userSpaceOnUse" x="8" y="0" width="8" height="13">
<path fill-rule="evenodd" clip-rule="evenodd" d="M8.12485 0H15.7443V12.8317H8.12485V0Z" fill="white"/>
</mask>
<g mask="url(#mask0_1632_18964)">
<path fill-rule="evenodd" clip-rule="evenodd" d="M8.9781 8.66869C8.7831 8.47369 8.4661 8.47369 8.2711 8.66869C8.0761 8.86369 8.0761 9.1807 8.2711 9.3757L11.5801 12.6847C11.6261 12.7307 11.6821 12.7677 11.7431 12.7937C11.8041 12.8187 11.8691 12.8317 11.9341 12.8317C11.9991 12.8317 12.0641 12.8187 12.1251 12.7937C12.1861 12.7677 12.2421 12.7307 12.2881 12.6847L15.5981 9.3757C15.7931 9.1807 15.7931 8.86369 15.5981 8.66869C15.4021 8.47369 15.0861 8.47369 14.8911 8.66869L12.4341 11.1247V0.499695C12.4341 0.223695 12.2101 -0.000305176 11.9341 -0.000305176C11.6581 -0.000305176 11.4341 0.223695 11.4341 0.499695V11.1247L8.9781 8.66869Z" fill="#231F20"/>
</g>
<mask id="mask1_1632_18964" style="mask-type:alpha" maskUnits="userSpaceOnUse" x="0" y="1" width="24" height="17">
<path fill-rule="evenodd" clip-rule="evenodd" d="M0 1.94501H23.8686V17.919H0V1.94501Z" fill="white"/>
</mask>
<g mask="url(#mask1_1632_18964)">
<path fill-rule="evenodd" clip-rule="evenodd" d="M21.735 1.94501H14.764C14.487 1.94501 14.264 2.16901 14.264 2.44501C14.264 2.72101 14.487 2.94501 14.764 2.94501H21.735C22.36 2.94501 22.869 3.45301 22.869 4.07801V15.785C22.869 16.41 22.36 16.919 21.735 16.919H2.132C1.508 16.919 1 16.41 1 15.785V4.07801C1 3.45301 1.508 2.94501 2.132 2.94501H9.105C9.381 2.94501 9.605 2.72101 9.605 2.44501C9.605 2.16901 9.381 1.94501 9.105 1.94501H2.132C0.956 1.94501 0 2.90201 0 4.07801V15.785C0 16.962 0.956 17.919 2.132 17.919H21.735C22.912 17.919 23.869 16.962 23.869 15.785V4.07801C23.869 2.90201 22.912 1.94501 21.735 1.94501Z" fill="#231F20"/>
</g>
<path fill-rule="evenodd" clip-rule="evenodd" d="M17.2281 22.011H16.4901L16.0261 19.421C15.9771 19.149 15.7201 18.971 15.4451 19.017C15.1741 19.066 14.9931 19.325 15.0421 19.597L15.4821 22.011L8.39511 22.008L8.82611 19.597C8.87511 19.325 8.69411 19.066 8.42211 19.017C8.14911 18.967 7.89111 19.149 7.84211 19.421L7.38611 22.011H6.64011C6.36411 22.011 6.14011 22.235 6.14011 22.511C6.14011 22.787 6.36411 23.011 6.64011 23.011H8.33411H15.5351H17.2281C17.5041 23.011 17.7281 22.787 17.7281 22.511C17.7281 22.235 17.5041 22.011 17.2281 22.011Z" fill="#231F20"/>
</svg>
